<?xml version="1.0" encoding="utf-8"?>
<!-- Generator: Adobe Illustrator 19.2.1, SVG Export Plug-In . SVG Version: 6.00 Build 0)  -->
<svg version="1.1" id="layer" xmlns="http://www.w3.org/2000/svg" xmlns:xlink="http://www.w3.org/1999/xlink" x="0px" y="0px"
	 viewBox="0 0 652 652" style="enable-background:new 0 0 652 652;" xml:space="preserve">
<polygon points="90,179.9 90,217.3 98.2,217.3 98.2,201.1 109.1,201.1 109.1,195 98.2,195 98.2,186 109.6,186 109.6,179.9 "/>
<g>
	<path d="M150.3,206.2c0-5.9-3.8-7-6-7.4c4.1-1,6.2-4,6.2-9.1c0-6.2-3.3-9.9-8.9-9.9h-14.5v37.4h8.1v-15.3h1.8
		c1.9,0,3.3,0.4,4.1,1.2c1.3,1.3,1.2,3.4,1.2,5.9v0.8c0,0.3,0,0.7,0,1c0,2.1-0.1,4.3,0.8,6.2l0,0.1h8l-0.1-0.3
		C150.4,215.5,150.3,208.5,150.3,206.2 M142.2,190.6c0,2.5-1,5.2-3.7,5.2h-3.2V186h3.2C141,186,142.2,187.4,142.2,190.6"/>
	<path d="M188,179.9h-10.5l-10.4,37.4h8l2.1-8.2h10.2l2.1,8.2h8.6L188,180L188,179.9z M185.8,203h-6.9l3.3-15.1L185.8,203z"/>
	<polygon points="236.1,204.9 226.5,180 226.5,179.9 215.7,179.9 215.7,217.3 223.3,217.3 223.3,190.9 233.1,217.1 233.2,217.3 
		243.7,217.3 243.7,179.9 236.1,179.9 	"/>
	<path d="M280,205.3c-0.1,2.8-0.2,6.7-3.3,6.7c-4,0-4.7-3.5-4.7-13.4c0-9.9,0.7-13.4,4.7-13.4c2.2,0,3,1.8,3,6.6v0.2h8l0-0.2
		c0.2-4.4-0.7-7.6-2.7-9.7c-1.8-1.9-4.6-2.8-8.2-2.8c-13,0-13,9.4-13,19.3c0,9.5,0,19.3,13,19.3c8,0,11.4-4,11.4-13.3v-0.2h-8
		L280,205.3z"/>
	<rect x="306.9" y="179.9" width="8.1" height="37.4"/>
	<path d="M349.5,195.2c-3.3-1.8-6.2-3.4-6.2-6.3c0-2.4,1.3-3.7,3.8-3.7c3,0,3.4,2.7,3.4,5.4v0.2h7.9l0-0.2c0.3-3.8-0.5-6.6-2.3-8.4
		c-1.8-1.9-4.7-2.9-8.7-2.9c-8.2,0-12.4,3.6-12.4,10.6c0,6.3,5,9.2,9.3,11.7c3.3,1.9,6.2,3.6,6.2,6.4c0,2.5-1.3,4-3.7,4
		c-3.9,0-4.2-2.5-4.2-6.3v-0.2h-8.1l0,0.2c-0.3,4.3,0.5,7.3,2.4,9.3c1.8,2,4.8,3,8.8,3c6.1,0,13.1-1.2,13.1-10.9
		C358.8,200.3,353.9,197.6,349.5,195.2"/>
	<polygon points="403.8,217.3 412,217.3 412,201.1 422.9,201.1 422.9,195 412,195 412,186 423.5,186 423.5,179.9 403.8,179.9 	"/>
	<path d="M453.7,179.3c-13,0-13,9.4-13,19.3c0,9.5,0,19.3,13,19.3c13,0,13-9.8,13-19.3C466.6,188.6,466.6,179.3,453.7,179.3
		 M453.7,211.9c-4,0-4.7-3.5-4.7-13.4c0-9.9,0.7-13.4,4.7-13.4c4,0,4.7,3.5,4.7,13.4C458.4,208.4,457.7,211.9,453.7,211.9"/>
	<path d="M509.7,206.2c0-5.9-3.8-7-6-7.4c4.1-1,6.2-4,6.2-9.1c0-6.2-3.3-9.9-8.9-9.9h-14.5v37.4h8.1v-15.3h1.8
		c1.9,0,3.3,0.4,4.1,1.2c1.3,1.3,1.2,3.4,1.2,5.9l0,0.8c0,0.3,0,0.7,0,1c0,2.1-0.1,4.2,0.8,6.2l0.1,0.1h8l-0.1-0.3
		C509.9,215.5,509.7,208.5,509.7,206.2 M494.7,186h3.2c2.6,0,3.8,1.5,3.8,4.7c0,2.5-1,5.2-3.8,5.2h-3.2V186z"/>
	<path d="M555,199.4c0-0.4,0-0.7,0-1c0-11.7-2-18.5-12.2-18.5h-13.1v37.4h12.8c3.7,0,6.7-1.1,8.7-3.1
		C555.1,210.2,555,203.4,555,199.4 M537.8,186h3.8c5.2,0,5.2,5.8,5.2,12.6c0,8.9-0.8,12.6-5.4,12.6h-3.5V186z"/>
	<path d="M215.5,420.4c-0.5,0.2-1.1,0.4-1.6,0.6c-0.7,0.2-1.3,0.5-2,0.7c-1.6,0.5-3.2,1-4.8,1.4l-0.5,0.1l0.5,1.7l0.3-0.1
		c3.1-0.9,3.4-0.2,3.5,0.3c0.1,0.2,0.2,0.7,0.1,3.1l-1.1,22.2l-8.7-10.2l1.6-10.9c0.3-2,0.9-3.3,3-3.9l0.3-0.1l-0.5-1.7l-0.3,0.1
		c-0.6,0.2-1.3,0.4-1.9,0.6c-0.7,0.2-1.4,0.5-2,0.7c-1.5,0.4-3.1,0.9-4.6,1.3l-0.9,0.2l0.5,1.7l0.3-0.1c0.9-0.3,1.6-0.5,2.1-0.5
		c0,0,0,0,0.1,0c0.4,0,0.7,0.2,0.9,0.8c0.2,0.7,0.2,1.5,0,2.9l-0.8,6.4l-4.8-6.1c-0.4-0.4-0.9-1.2-1-1.4c-0.2-0.8,0.9-1.2,1.9-1.6
		l0.3-0.1l-0.5-1.7l-0.3,0.1c-0.7,0.2-1.5,0.5-2.3,0.7c-0.8,0.3-1.6,0.6-2.4,0.8c-2,0.6-4,1.2-6.3,1.8l-0.3,0.1l0.5,1.7l0.3-0.1
		c2.7-0.8,3.1-0.6,4.8,1.4l9.1,10.7l-1.4,10.4l-15.2-18.6c-0.8-1.1-0.9-1.4-1.1-1.8c-0.2-0.5,0.6-1,2.3-1.5l0.3-0.1l-0.5-1.7
		l-0.3,0.1c-0.8,0.3-1.7,0.5-2.5,0.8c-0.9,0.3-1.9,0.6-2.7,0.9c-2,0.6-4.2,1.3-6.2,1.8l-0.3,0.1l0.5,1.7l0.3-0.1c3.1-1,3.8,0,5.5,2
		l19.6,23.9l0.1,0.1l1.6-0.5l2.1-15.1l9.9,11.2l0.1,0.1l1.5-0.5l2.2-31.3c0.2-2.1,0.2-3.3,2.2-3.9l0.3-0.1l-0.5-1.7L215.5,420.4z"/>
	<path d="M257.8,444.4c-2.5,0.4-4,0.6-4.5-2.3l-4.3-23.3c-0.5-3,0.9-3.3,3.4-3.8l0.3-0.1l-0.3-1.8l-0.3,0.1
		c-2.2,0.5-4.4,0.9-6.6,1.3c-1.7,0.3-3.4,0.6-5.3,0.9l-1.4,0.2l0.3,1.7l0.3,0c2.5-0.4,4-0.6,4.5,2.3l4.3,23.2c0.5,3-0.9,3.3-3.4,3.8
		l-0.3,0.1l0.3,1.8l0.3-0.1c2.5-0.5,4.5-0.9,6.7-1.3c1-0.2,2-0.3,3-0.5c1.1-0.2,2.1-0.3,3.3-0.5l0.3-0.1l-0.3-1.7L257.8,444.4z"/>
	<path d="M314.2,407c-0.9,0.1-1.8,0.1-2.7,0.2c-0.9,0.1-1.8,0.2-2.7,0.2c-2.1,0.1-4.2,0.2-6.3,0.3l-0.5,0l0.1,1.8l0.3,0
		c4.7-0.2,5.5,1,5.8,5l1.2,18c-1.2-1.1-2.5-2.3-3.8-3.6c-2.6-2.4-5.4-5.1-8.1-7.7c-1.9-1.8-3.6-3.5-5.2-4.9
		c-3.3-3.1-5.9-5.5-7.3-7.3l-0.1-0.1l-0.2,0c-0.6,0-1.3,0.1-1.9,0.2c-0.6,0.1-1.3,0.1-1.9,0.2c-1.2,0.1-2.4,0.1-3.7,0.2l-0.9,0
		l0.1,1.8l0.3,0c2-0.1,3.4,0.1,4.3,0.9c0.9,0.8,1.4,2,1.6,4l1.3,18.9c0.4,5.7-1.5,5.8-4.4,6l-0.3,0l0.1,1.8l0.3,0
		c1.9-0.2,4.1-0.4,6.2-0.5c1-0.1,2.1-0.1,3.1-0.2c1.1-0.1,2.1-0.1,3.1-0.2l0.3,0l-0.1-1.8l-0.3,0c-0.5,0-0.9,0-1.3,0
		c-3.7,0-4.1-1.5-4.5-7.2l-1.1-16.8l25.9,24.8l0.1,0.1l1.5-0.1l-1.8-27.4c-0.1-2,0.1-3.2,0.7-3.9c0.6-0.7,1.8-0.8,3.2-0.9l0.3,0
		l-0.1-1.8L314.2,407z"/>
	<path d="M363.1,434.7c-2,4.5-3.8,5.1-7.8,5.1c-0.3,0-0.5,0-0.8,0l-2.9-0.2c-4.4-0.3-4.5-1.4-4.1-6.6l0.5-7.7l4.7,0.3
		c3.6,0.3,4.8,0.3,4.6,4.6l0,0.3l1.5,0.1l0-0.3c0.1-0.8,0.1-1.9,0.1-2.9c0-0.9,0-1.7,0.1-2.3c0.1-1.7,0.4-4.2,0.5-5.2l0-0.3
		l-1.5-0.1l0,0.2c0,0.1,0,0.2-0.1,0.3c-0.2,1.2-0.6,3.3-3.4,3.3c-0.1,0-0.3,0-0.4,0l-5.9-0.4l0.9-12.8l5.2,0.3
		c4.8,0.3,6.5,1.8,6.9,6l0,0.3l1.5-0.3l0.5-7.2l0-0.3l-0.3,0c-4.6-0.2-9-0.5-13.5-0.8l-0.4,0c-3-0.2-6.1-0.4-9.1-0.7l-0.3,0
		l-0.1,1.8l0.3,0c3.6,0.4,4.2,0.6,3.9,4.2l-1.4,20.9c-0.2,2.3-0.3,3.5-0.9,4.2c-0.5,0.6-1.5,0.7-3.6,0.6l-0.3,0l-0.1,1.8l0.3,0
		c3.5,0.1,7,0.4,10.3,0.6l0.1,0c2.5,0.2,4.9,0.4,7.4,0.6c2.2,0.2,4.4,0.3,6.7,0.5l0.2,0l0.1-0.2c0.7-2.5,1.6-5,2.4-7l0.1-0.3
		l-1.6-0.4L363.1,434.7z"/>
	<path d="M411.8,445.7c-1.1-1.7-2.1-4.2-3.6-7.8c-0.7-1.6-1.4-3.4-2.3-5.5c4.1-0.5,7.3-3.2,8-6.8c0.4-2,0.8-8.6-9.3-10.6
		c-1.7-0.3-3-0.6-4.1-0.7c-0.8-0.1-1.4-0.2-2.1-0.4c-2.1-0.4-4-0.8-6.3-1.3l-1-0.2l-0.3,1.8l0.3,0.1c2.4,0.5,3.9,0.8,3.3,3.8
		l-4.6,23.4c-0.2,0.9-0.6,1.6-1.1,1.9c-0.7,0.5-1.8,0.5-3.3,0.1l-0.3-0.1l-0.4,1.8l0.3,0.1c2.5,0.4,4.5,0.8,6.7,1.2
		c1,0.2,1.9,0.4,2.9,0.6c1.1,0.2,2.2,0.5,3.3,0.7l0.3,0.1l0.3-1.8l-0.3-0.1c-2.4-0.5-3.9-0.8-3.3-3.8l2-10.5l3.8,0.7
		c0.4,1,0.8,2,1.2,3c1.8,4.8,3.8,9.7,6.5,14.2l0.1,0.1l0.1,0c1.2,0.2,2.6,0.4,3.9,0.7c0.6,0.1,1.2,0.2,1.7,0.4
		c0.6,0.1,1.1,0.3,1.7,0.4l0.3,0.1l0.3-1.8l-0.3-0.1C414,449.1,412.9,447.5,411.8,445.7 M408.5,424.8c-0.3,1.8-1.4,3.4-2.8,4.4
		c-1.6,1.1-3.7,1.4-6.1,0.9c-0.7-0.1-1.5-0.4-2.1-0.6l2.5-13.1c0.8,0,1.5,0,2.5,0.2c2.5,0.5,4.3,1.5,5.2,3
		C408.6,421,408.9,422.8,408.5,424.8"/>
	<path d="M472.2,433.2c-0.7-0.2-1.4-0.4-2.1-0.6c-0.5-0.2-1.1-0.3-1.6-0.5c-1.4-0.5-2.9-1-4.3-1.5l-1.1-0.4l-0.6,1.7l0.3,0.1
		c2.5,0.8,2.9,1,2.6,2c-0.2,0.8-1.4,1.6-2.2,2.2c-0.2,0.1-0.3,0.2-0.5,0.3l-8.1,5.9l-3.3-10.5c-0.5-1.6-0.7-2.7-0.6-3.1
		c0-0.1,0.1-0.2,0.2-0.2c0.5-0.3,1.8,0.1,2.3,0.3l0.3,0.1l0.5-1.7l-0.3-0.1c-1-0.3-2-0.6-2.9-0.9c-0.9-0.3-1.7-0.5-2.6-0.8
		c-2.1-0.7-5.4-1.8-6.2-2.1l-0.3-0.1l-0.6,1.7l0.7,0.3c2.1,0.9,2.3,1,3,3l5.2,15.8l-3.4,10.8c-0.9,2.9-2.4,2.5-4.8,1.7l-0.3-0.1
		l-0.5,1.7l0.3,0.1c2,0.6,4.2,1.2,6.2,1.9c1.9,0.6,3.8,1.2,5.8,1.9l0.8,0.3l0.5-1.7l-0.3-0.1c-2.4-0.8-3.8-1.3-2.9-4.2l3.7-11.5
		l12.2-8.8l0.1-0.1c1.3-1,2.5-1.8,4.2-1.3l0.3,0.1l0.5-1.7L472.2,433.2z"/>
	<path d="M111.8,306.7v-17.5c0-11.4-4.2-21.9-11.9-29.6c-8.3-8.2-19.9-12.8-32.8-12.7c-26.2,0.1-45.3,18.6-45.3,44v103.6
		c0,14.7,4.5,26.4,13.1,33.8c8.4,7.2,20.1,9.8,33.2,8.2c29-3.5,43.8-24.6,43.8-50.9v-20H79.5v20.8c0,11.5-2.2,17.7-12.7,18.4
		c-3.3,0.2-6.5-0.2-8.5-1.9c-2.7-2.4-4.3-7.2-4.3-13.1V296c0-12.4,3.4-17.3,12.8-17.3c4.7,0,6.5,1,8.7,3.2c2.6,2.5,4.1,6.4,4.1,10.7
		v14.1H111.8z"/>
	<path d="M191.3,258c-7.2-7.2-17.8-11.3-28.9-11.2c-19.3,0.1-38.8,13.4-38.8,38.8v74.5c0,10.9,3.7,19.9,10.7,26
		c7.3,6.3,17.7,8.8,28.6,7.5c21-2.4,38.4-14.7,38.4-41.3v-69.4C201.2,273.1,197.8,264.5,191.3,258 M151.1,357.7v-73
		c0-10.5,8.4-11.6,11.2-11.6c3.5,0,6.6,0.9,8.5,2.8c1.8,1.8,2.8,4.4,2.8,7.7v70.9c0,10.2-5.7,12.2-11.3,12.6
		c-3.3,0.3-6.5-0.3-8.4-1.9C152.1,363.7,151.1,361.1,151.1,357.7"/>
	<path d="M277.6,257.5c-6.7-6.5-14.6-9.2-26.4-9.2c0,0-31.2,0.1-31.2,0.1v128.5c0,0,3.7-0.9,14.6-2.8c6.9-1.2,10.4-1.8,10.4-1.8
		s0-38.3,0-43.6c2.8-0.1,6.5-0.3,6.5-0.3c13.8-0.6,23.5-5.4,29.7-14.9c4.9-7.4,5.8-15,5.8-25.8C287,272.1,284.5,264.2,277.6,257.5
		 M244.9,306v-35c2.9,0,6.6-0.1,6.6-0.1c4.2,0,7.1,0.7,8.7,2.4c2.8,2.7,2.8,8.4,2.8,14.9c0,12.8-0.6,17.2-12.4,17.6
		C250.7,305.8,247.5,305.9,244.9,306"/>
	<path d="M354.6,257.1c-6.3-6.1-13.8-8.7-24.9-8.7h-29.4v117.9l12.1-0.4l11.6-0.2v-43.3h5.8c13,0,22.2-4.2,28-13
		c4.6-6.8,5.5-14,5.5-24.1C363.4,272.9,362,264.2,354.6,257.1 M324.1,269.6h6c10.2,0,10.6,4.6,10.6,15.9c0,11.9-0.5,15.6-11.3,15.6
		h-5.3V269.6z"/>
	<path d="M408.4,246.8c-16.8,0-33.9,11.2-33.9,32.6V342c0,21.4,17,32.6,33.9,32.6c16.8,0,33.9-11.2,33.9-32.6v-62.6
		C442.2,258,425.2,246.8,408.4,246.8 M399.1,342v-62.6c0-8.4,7.1-9.1,9.3-9.1c2.2,0,9.3,0.7,9.3,9.1V342c0,8.4-7.1,9.1-9.3,9.1
		C406.2,351.1,399.1,350.5,399.1,342"/>
	<path d="M481.4,365.4l0-117l-25.9,0L455.5,384c0,0,19,5.7,28.1,9.1c11.4,4.3,29,11.2,29,11.2v-28.3L481.4,365.4z"/>
	<path d="M581.6,248.4h-25.9L518,405.9c0,0,6.2,2.7,12.3,5.4c5.9,2.6,12.4,5.5,12.4,5.5l6.3-30.1l36.4,14.1l7.6,39.2
		c0,0,6.1,2.7,14,6.5c7.8,3.7,14.6,7.1,14.6,7.1L581.6,248.4z M554.2,363.1l13.3-59.9l12.9,68.9L554.2,363.1z"/>
</g>
</svg>
